<svg xmlns="http://www.w3.org/2000/svg" xmlns:xlink="http://www.w3.org/1999/xlink" width="500" zoomAndPan="magnify" viewBox="0 0 375 374.999991" height="500" preserveAspectRatio="xMidYMid meet" version="1.0"><rect x="-37.5" width="450" fill="#ffffff" y="-37.499999" height="449.999989" fill-opacity="1"/><rect x="-37.5" width="450" fill="#000000" y="-37.499999" height="449.999989" fill-opacity="1"/><path fill="#ffffff" d="M 180.910156 212.691406 C 180.910156 212.691406 180.910156 212.90625 181.035156 213.28125 C 181.839844 217.175781 186.402344 238.914062 188.410156 241.203125 C 187.78125 245.59375 186.1875 254.042969 184.609375 255.917969 C 183.03125 257.796875 182.394531 267.527344 184.609375 274.445312 C 186.824219 281.363281 188.476562 292.671875 186.796875 298.332031 C 185.117188 303.988281 179.878906 307.761719 182.1875 310.484375 C 184.496094 313.207031 190.363281 318.238281 190.148438 321.804688 C 189.929688 325.371094 190.363281 334.800781 193.902344 335.007812 C 197.4375 335.214844 197.65625 336.886719 198.519531 329.378906 C 199.382812 321.867188 199.980469 318.058594 199.777344 310.925781 C 199.570312 303.792969 196.960938 295.410156 196.960938 295.410156 C 196.960938 295.410156 202.75 306.316406 203.378906 310.296875 C 204.007812 314.277344 202.75 320.78125 203.378906 323.71875 C 204.007812 326.65625 202.75 334.980469 207.367188 335.335938 C 211.984375 335.691406 214.492188 337.34375 215.121094 330.417969 C 215.75 323.492188 214.914062 313.234375 212.191406 305.894531 C 209.472656 298.554688 205.894531 293.949219 206.5625 287.660156 C 207.226562 281.371094 206.5625 265.011719 203.632812 259.980469 C 200.695312 251.601562 207.828125 232.945312 207.828125 232.945312 L 213.902344 221.832031 C 213.902344 221.832031 220.40625 227.066406 221.867188 226.863281 C 223.332031 226.65625 226.898438 225.8125 226.898438 225.8125 L 229.207031 226.234375 L 230.886719 226.027344 L 233.816406 227.066406 L 237.382812 224.769531 C 237.382812 224.769531 233.1875 225.605469 239.898438 225.8125 C 246.609375 226.015625 247.660156 225.8125 247.660156 225.8125 L 250.585938 224.769531 C 250.585938 224.769531 249.332031 222.246094 253.101562 222.246094 C 256.875 222.246094 256.855469 219.101562 256.855469 219.101562 C 256.855469 219.101562 252.671875 216.171875 252.878906 214.285156 C 253.085938 212.398438 253.300781 211.347656 251.199219 208.410156 C 249.09375 205.472656 228.710938 183.652344 222.601562 179.664062 C 216.492188 175.675781 220.507812 167.714844 223.230469 163.519531 C 225.953125 159.324219 228.054688 146.328125 228.054688 146.328125 C 228.054688 146.328125 230.363281 142.574219 229.929688 139.410156 C 229.5 136.246094 226.175781 125.152344 226.175781 125.152344 C 226.175781 125.152344 223.867188 120.339844 226.175781 115.769531 C 228.484375 111.199219 237.289062 92.078125 239.175781 89.359375 C 241.0625 86.636719 242.527344 84.957031 245.886719 73.84375 C 249.246094 62.730469 250.917969 56.226562 250.917969 56.226562 C 250.917969 56.226562 255.609375 53.824219 258.425781 51.9375 C 260.496094 50.714844 262.730469 50.050781 265.136719 49.941406 C 265.136719 49.941406 270.585938 50.15625 270.765625 48.785156 C 270.945312 47.414062 269.59375 47.566406 269.59375 47.566406 C 269.59375 47.566406 272.109375 47.246094 272.410156 46.09375 C 272.707031 44.9375 273.140625 44 270.933594 43.578125 C 269.339844 43.222656 267.804688 42.703125 266.328125 42.007812 L 271.253906 39.90625 C 271.253906 39.90625 271.582031 37.738281 268.589844 38.265625 C 265.59375 38.789062 257.796875 40.140625 254.859375 43.191406 C 252.566406 45.433594 250.121094 47.492188 247.519531 49.367188 L 237.984375 68.136719 C 237.984375 68.136719 232.847656 76.726562 232.351562 81.136719 C 231.855469 85.546875 226.269531 93.714844 226.269531 93.714844 C 226.269531 93.714844 218.761719 106.390625 216.210938 108.730469 C 214.539062 110.355469 213.175781 112.207031 212.117188 114.285156 L 209.816406 114.492188 C 209.816406 114.492188 206.777344 107.367188 207.828125 103.171875 C 208.878906 98.976562 214.117188 94.613281 213.167969 93.460938 C 212.222656 92.304688 209.601562 89.519531 209.601562 89.519531 L 208.242188 89.519531 L 208.765625 87.695312 L 207.191406 87.414062 C 207.191406 87.414062 208.035156 82.871094 206.148438 83.398438 C 204.261719 83.925781 200.902344 83.691406 200.171875 82.75 C 199.4375 81.8125 193.675781 78.058594 190.53125 79.070312 C 187.386719 80.085938 177.871094 84.167969 178.488281 90.671875 C 174.734375 92.671875 171.261719 95.804688 172.519531 99.578125 C 173.777344 103.351562 176.273438 112.050781 184.570312 106.917969 C 186.832031 108.660156 189.386719 109.640625 192.230469 109.855469 C 192.230469 109.855469 193.589844 117.925781 189.078125 118.03125 C 184.5625 118.132812 180.066406 118.660156 177.34375 120.226562 C 174.625 121.792969 163.40625 125.265625 155.964844 124.636719 C 148.523438 124.007812 145.90625 123.585938 138.039062 124.113281 C 130.175781 124.636719 121.484375 124.636719 121.484375 124.636719 C 121.484375 124.636719 113.414062 128.195312 110.578125 131.863281 L 106.382812 137.316406 L 102.722656 142.769531 C 102.722656 142.769531 101.785156 144.757812 103.558594 144.648438 C 103.789062 144.652344 104.015625 144.621094 104.238281 144.546875 C 104.457031 144.472656 104.660156 144.367188 104.839844 144.222656 C 105.023438 144.078125 105.175781 143.90625 105.296875 143.707031 C 105.417969 143.511719 105.5 143.296875 105.546875 143.070312 L 105.445312 147.367188 C 105.445312 147.367188 105.546875 149.046875 107.125 147.6875 C 107.753906 147.894531 110.164062 149.460938 110.164062 147.160156 C 110.164062 144.863281 108.90625 140.246094 109.320312 139.296875 C 109.734375 138.347656 112.257812 136.359375 113.074219 136.359375 C 113.320312 136.34375 113.554688 136.390625 113.773438 136.503906 C 113.992188 136.613281 114.167969 136.777344 114.300781 136.984375 C 114.429688 137.191406 114.5 137.421875 114.503906 137.667969 C 114.511719 137.914062 114.453125 138.144531 114.332031 138.359375 C 113.597656 139.59375 113.351562 140.921875 113.601562 142.339844 C 113.617188 142.59375 113.679688 142.835938 113.789062 143.070312 C 113.898438 143.300781 114.046875 143.503906 114.230469 143.679688 C 114.417969 143.855469 114.628906 143.992188 114.867188 144.089844 C 115.105469 144.183594 115.351562 144.230469 115.609375 144.234375 L 116.980469 140.769531 C 116.980469 140.269531 117.109375 139.800781 117.371094 139.371094 C 117.628906 138.9375 117.980469 138.605469 118.425781 138.367188 C 119.992188 137.429688 122.722656 133.121094 122.507812 131.132812 C 128.589844 131.863281 143.691406 134.59375 143.691406 134.59375 C 143.691406 134.59375 150.710938 136.164062 156.050781 135.113281 C 161.390625 134.058594 179.511719 132.492188 182.046875 133.019531 C 184.582031 133.542969 188.859375 140.359375 188.859375 140.359375 C 188.859375 140.359375 193.054688 143.5 193.054688 145.914062 C 193.054688 148.324219 194.625 157.128906 194.625 157.128906 C 194.625 157.128906 193.382812 165.820312 189.753906 166.355469 C 186.121094 166.890625 167.835938 164.777344 160.085938 165.199219 C 152.332031 165.621094 152.746094 165.511719 152.746094 165.511719 L 152.222656 167.292969 L 151.394531 167.5 L 147.097656 168.242188 L 147.097656 169.386719 L 145.941406 169.28125 L 145.640625 171.28125 L 145.378906 172.324219 L 140.367188 172.425781 L 139.023438 175.46875 L 134.519531 176.828125 L 135.148438 178.199219 L 134.3125 178.929688 L 134.53125 179.765625 L 135.160156 180.921875 L 135.046875 182.496094 L 134.210938 183.378906 L 135.054688 184.992188 L 136.453125 184.992188 L 136.453125 188.261719 L 137.691406 190.671875 C 138.675781 191.074219 139.683594 191.390625 140.722656 191.609375 C 142.3125 191.375 143.878906 191.027344 145.417969 190.570312 C 146.820312 190.089844 148.191406 189.53125 149.527344 188.890625 L 149.226562 190.671875 C 149.226562 190.671875 149.339844 191.507812 150.597656 191.507812 C 150.945312 191.492188 151.277344 191.558594 151.59375 191.703125 C 151.90625 191.851562 152.171875 192.066406 152.378906 192.34375 L 151.75 193.917969 L 155.113281 194.859375 C 155.113281 194.859375 154.058594 198.011719 155.007812 198.527344 C 155.878906 198.910156 156.785156 199.160156 157.730469 199.269531 L 157.9375 201.257812 C 157.9375 201.257812 157.523438 202.515625 158.78125 202.515625 C 160.039062 202.515625 163.183594 203.25 163.285156 204.082031 C 163.390625 204.917969 163.597656 205.960938 163.597656 205.960938 L 168.738281 208.371094 C 168.738281 208.371094 172.613281 210.476562 172.925781 210.785156 C 173.234375 211.09375 177.328125 210.886719 177.328125 210.886719 L 179.203125 210.15625 Z M 180.910156 212.691406 " fill-opacity="1" fill-rule="nonzero"/></svg>